<?xml version="1.0" encoding="iso-8859-1"?>
<!-- Uploaded to: SVG Repo, www.svgrepo.com, Generator: SVG Repo Mixer Tools -->
<svg fill="#000000" height="800px" width="800px" version="1.1" id="Layer_1" xmlns="http://www.w3.org/2000/svg" xmlns:xlink="http://www.w3.org/1999/xlink" 
	 viewBox="0 0 512 512" xml:space="preserve">
<g>
	<g>
		<path d="M187.733,90.453c-12.543,0-22.751,10.206-22.756,22.756c0,12.547,10.207,22.756,22.751,22.756h0.005
			c12.547,0,22.756-10.208,22.756-22.756C210.489,100.661,200.281,90.453,187.733,90.453z"/>
	</g>
</g>
<g>
	<g>
		<path d="M324.267,90.453c-12.543,0-22.751,10.206-22.756,22.756c0,12.547,10.207,22.756,22.751,22.756h0.005
			c12.547,0,22.756-10.208,22.756-22.756C347.022,100.661,336.814,90.453,324.267,90.453z"/>
	</g>
</g>
<g>
	<g>
		<path d="M408.298,98.315c-7.066-39.976-42.059-70.44-84.032-70.44c-27.883,0-52.686,13.442-68.267,34.187
			c-15.581-20.745-40.383-34.187-68.267-34.187c-41.973,0-76.966,30.464-84.032,70.44C45.251,106.056,0,156.216,0,216.747
			c0,59.361,43.15,108.836,100.429,117.96l7.327,33.588l0.113,0.484c16.094,64.68,69.167,115.346,120.824,115.346h54.614
			c51.659-0.002,104.73-50.669,120.823-115.346l7.44-34.072C468.85,325.583,512,276.108,512,216.747
			C512,156.216,466.748,106.056,408.298,98.315z M396.708,301.978l-12.339,0.593l-3.292,11.907
			c-0.067,0.241-0.127,0.486-0.185,0.733l-9.942,45.561c-12.133,48.386-52.224,89.219-87.643,89.221h-54.613
			c-35.417,0-75.506-40.834-87.642-89.221l-9.875-45.261l-3.197-12.922l-12.687-0.609c-45.51-2.188-81.159-39.625-81.159-85.233
			c0-47.053,38.281-85.333,85.333-85.333h17.067v-18.204c0-28.232,22.967-51.2,51.2-51.2s51.2,22.968,51.2,51.2h34.133
			c0-28.232,22.967-51.2,51.2-51.2c28.233,0,51.2,22.968,51.2,51.2v18.204h17.067c47.053,0,85.333,38.281,85.333,85.333
			C477.867,262.354,442.218,299.792,396.708,301.978z"/>
	</g>
</g>
<g>
	<g>
		<path d="M349.135,234.197c-20.117,21.342-34.367,49.009-39.135,75.967l-4.833,22.157c-5.514,21.778-23.26,38.024-35.513,38.026
			h-27.304c-12.256-0.001-30.002-16.247-35.516-38.027L202,310.163c-4.768-26.957-19.019-54.625-39.135-75.967
			c-20.676-21.934-44.787-34.516-66.154-34.516v34.133c11.65,0,27.481,9.118,41.315,23.794
			c15.739,16.698,26.822,38.119,30.411,58.771l5.104,23.472l0.114,0.486c5.008,20.128,16.667,37.812,31.146,49.488v31.722h34.133
			v-17.204c1.138,0.082,2.276,0.138,3.413,0.138h27.309c1.137,0,2.273-0.056,3.411-0.138v17.204H307.2v-31.722
			c14.478-11.675,26.138-29.359,31.146-49.488l5.078-23.24l0.14-0.718c3.589-20.652,14.673-42.074,30.412-58.771
			c13.833-14.676,29.664-23.794,41.314-23.794V199.68C393.923,199.68,369.811,212.262,349.135,234.197z"/>
	</g>
</g>
<g>
	<g>
		<path d="M256,176.924c-28.233,0-55.844,7.733-79.847,22.364l17.768,29.144c18.649-11.366,40.116-17.375,62.081-17.375
			c21.965,0,43.431,6.009,62.081,17.375l17.766-29.144C311.844,184.658,284.233,176.924,256,176.924z"/>
	</g>
</g>
<g>
	<g>
		<path d="M256,245.191c-17.776,0-34.897,3.822-50.887,11.361l14.556,30.874c11.402-5.376,23.627-8.101,36.332-8.101
			s24.929,2.725,36.332,8.101l14.556-30.874C290.897,249.013,273.776,245.191,256,245.191z"/>
	</g>
</g>
</svg>